<?xml version="1.0" encoding="UTF-8" standalone="no"?>
<!-- Created with Inkscape (http://www.inkscape.org/) -->

<svg
   width="202.27673mm"
   height="202.27678mm"
   viewBox="0 0 202.27673 202.27678"
   version="1.1"
   id="svg1"
   xmlns="http://www.w3.org/2000/svg"
   xmlns:svg="http://www.w3.org/2000/svg">
  <defs
     id="defs1" />
  <g
     id="layer1"
     transform="translate(-3.1537038,-4.8820492)">
    <g
       id="g6"
       transform="matrix(2.1682407,-1.0187038,1.0187038,2.1682407,-195.83369,55.714549)">
      <path
         id="path2"
         style="fill:#0056a3;stroke-width:0.743492"
         d="M 146.67784,72.279606 A 42.217926,42.217926 0 0 1 104.45992,114.49754 42.217926,42.217926 0 0 1 62.241997,72.279606 42.217926,42.217926 0 0 1 104.45992,30.06168 42.217926,42.217926 0 0 1 146.67784,72.279606 Z" />
      <path
         id="path2-5"
         style="fill:#ffffff;stroke-width:0.67779"
         d="M 142.89875,72.265671 A 38.487019,38.487019 0 0 1 104.41173,110.75269 38.487019,38.487019 0 0 1 65.924709,72.265671 38.487019,38.487019 0 0 1 104.41173,33.778652 38.487019,38.487019 0 0 1 142.89875,72.265671 Z" />
      <path
         id="path2-1"
         style="fill:#0056a3;stroke-width:0.439001"
         d="M 129.33961,72.265671 A 24.927881,24.927881 0 0 1 104.41173,97.193552 24.927881,24.927881 0 0 1 79.483847,72.265671 24.927881,24.927881 0 0 1 104.41173,47.33779 24.927881,24.927881 0 0 1 129.33961,72.265671 Z" />
      <path
         id="rect4"
         style="fill:#0056a3;stroke:#ffffff;stroke-width:0"
         d="M 65.467163,83.344727 H 143.35629 V 61.186611 H 65.467163 Z" />
      <path
         id="path2-5-7"
         style="fill:#ffffff;stroke-width:0.400729"
         d="M 127.1664,72.265671 A 22.754669,22.754669 0 0 1 104.41173,95.02034 22.754669,22.754669 0 0 1 81.657059,72.265671 22.754669,22.754669 0 0 1 104.41173,49.511002 22.754669,22.754669 0 0 1 127.1664,72.265671 Z" />
      <path
         id="path2-1-2"
         style="fill:#0056a3;stroke-width:0.368895"
         d="m 125.35873,72.265671 a 20.947004,20.947004 0 0 1 -20.947,20.947004 20.947004,20.947004 0 0 1 -20.947006,-20.947004 20.947004,20.947004 0 0 1 20.947006,-20.947005 20.947004,20.947004 0 0 1 20.947,20.947005 z" />
      <path
         id="rect5"
         style="fill:#ffffff;stroke:#ffffff;stroke-width:0"
         d="m 63.224191,63.200793 a 42.336624,42.217926 0 0 0 -1.100693,9.079033 42.336624,42.217926 0 0 0 1.094474,9.05061 h 82.581538 a 42.336624,42.217926 0 0 0 0.99706,-9.05061 42.336624,42.217926 0 0 0 -1.00327,-9.079033 z" />
      <path
         id="rect4-1"
         style="fill:#0056a3;stroke:#ffffff;stroke-width:0"
         d="m 62.992537,64.795528 a 42.217926,42.217926 0 0 0 -0.750341,7.484298 42.217926,42.217926 0 0 0 0.744657,7.455875 h 83.015087 a 42.217926,42.217926 0 0 0 0.67593,-7.455875 42.217926,42.217926 0 0 0 -0.68058,-7.484298 z" />
      <path
         style="font-weight:bold;font-size:10.8826px;-inkscape-font-specification:'sans-serif Bold';fill:#ffffff;stroke:#ffffff;stroke-width:0"
         d="m 72.458539,70.04142 h -1.621508 v -7.770176 h 4.450984 v 1.349442 h -2.829476 v 2.002398 h 2.633589 v 1.349443 h -2.633589 z m 11.404962,-3.895971 q 0,1.207969 -0.402656,2.111225 -0.391774,0.892373 -1.218851,1.392972 -0.816195,0.5006 -2.078577,0.5006 -1.262381,0 -2.089459,-0.5006 -0.816195,-0.500599 -1.218851,-1.403855 -0.391774,-0.903256 -0.391774,-2.111224 0,-1.207969 0.391774,-2.100342 0.402656,-0.892373 1.218851,-1.38209 0.827078,-0.5006 2.100342,-0.5006 1.262381,0 2.078576,0.5006 0.816195,0.489717 1.207969,1.392972 0.402656,0.892374 0.402656,2.100342 z m -5.669834,0 q 0,1.218851 0.467951,1.92622 0.467952,0.696487 1.501799,0.696487 1.055612,0 1.512681,-0.696487 0.45707,-0.707369 0.45707,-1.92622 0,-1.218851 -0.45707,-1.915337 -0.457069,-0.707369 -1.501798,-0.707369 -1.04473,0 -1.512682,0.707369 -0.467951,0.696486 -0.467951,1.915337 z m 14.332378,0 q 0,1.207969 -0.402656,2.111225 -0.391774,0.892373 -1.218852,1.392972 -0.816195,0.5006 -2.078576,0.5006 -1.262382,0 -2.089459,-0.5006 -0.816195,-0.500599 -1.218851,-1.403855 -0.391774,-0.903256 -0.391774,-2.111224 0,-1.207969 0.391774,-2.100342 0.402656,-0.892373 1.218851,-1.38209 0.827077,-0.5006 2.100341,-0.5006 1.262382,0 2.078577,0.5006 0.816195,0.489717 1.207969,1.392972 0.402656,0.892374 0.402656,2.100342 z m -5.669835,0 q 0,1.218851 0.467952,1.92622 0.467952,0.696487 1.501799,0.696487 1.055612,0 1.512681,-0.696487 0.457069,-0.707369 0.457069,-1.92622 0,-1.218851 -0.457069,-1.915337 -0.457069,-0.707369 -1.501799,-0.707369 -1.044729,0 -1.512681,0.707369 -0.467952,0.696486 -0.467952,1.915337 z m 13.72295,-0.0653 q 0,1.96975 -1.120904,2.970949 -1.120908,0.990317 -3.123306,0.990317 h -2.198286 v -7.770176 h 2.437703 q 1.218851,0 2.111224,0.435304 0.903256,0.435304 1.392969,1.284146 0.5006,0.848843 0.5006,2.08946 z m -1.708565,0.04353 q 0,-1.284147 -0.565895,-1.893572 -0.565895,-0.609426 -1.643272,-0.609426 h -0.881491 v 5.060409 h 0.707369 q 2.383289,0 2.383289,-2.557411 z m 6.148665,-3.85244 h 2.41594 q 1.54533,0 2.33976,0.435304 0.80531,0.435304 0.80531,1.534446 0,0.663839 -0.31559,1.120908 -0.30472,0.457069 -0.88149,0.555013 v 0.05441 q 0.38089,0.08706 0.69648,0.282947 0.32648,0.185004 0.51148,0.555013 0.18501,0.370008 0.18501,0.979434 0,1.055612 -0.77267,1.654155 -0.76178,0.598543 -2.07857,0.598543 h -2.90566 z m 1.64328,3.079775 h 0.95766 q 0.71826,0 0.99032,-0.217652 0.28295,-0.228534 0.28295,-0.674721 0,-0.446186 -0.32648,-0.642073 -0.32648,-0.195887 -1.03385,-0.195887 h -0.8706 z m 0,1.305912 v 2.024164 h 1.07737 q 0.74002,0 1.03385,-0.282948 0.29383,-0.29383 0.29383,-0.772664 0,-0.435304 -0.30471,-0.696487 -0.29383,-0.272065 -1.07738,-0.272065 z m 11.99263,-4.385687 V 67.299 q 0,0.805312 -0.35912,1.458268 -0.34825,0.642074 -1.0665,1.022965 -0.71825,0.370008 -1.79563,0.370008 -1.54533,0 -2.35064,-0.783547 -0.80531,-0.79443 -0.80531,-2.089459 v -5.005996 h 1.64327 v 4.755696 q 0,0.968551 0.39177,1.360325 0.39178,0.380891 1.16444,0.380891 0.80531,0 1.16444,-0.424422 0.37001,-0.424421 0.37001,-1.327677 v -4.744813 z m 6.48604,5.615421 q 0,1.033847 -0.7509,1.654155 -0.74002,0.609426 -2.11123,0.609426 -1.22973,0 -2.19828,-0.467952 v -1.534446 q 0.55501,0.239417 1.14267,0.446186 0.59855,0.195887 1.18621,0.195887 0.60942,0 0.85972,-0.228535 0.26118,-0.239417 0.26118,-0.598543 0,-0.29383 -0.20677,-0.500599 -0.19588,-0.20677 -0.53324,-0.380891 -0.33736,-0.185004 -0.77267,-0.391774 -0.27206,-0.130591 -0.58766,-0.304713 -0.31559,-0.185004 -0.60942,-0.446186 -0.28295,-0.272065 -0.46796,-0.652956 -0.185,-0.380891 -0.185,-0.914139 0,-1.044729 0.70737,-1.621507 0.70737,-0.58766 1.92622,-0.58766 0.60943,0 1.15356,0.141474 0.54413,0.141473 1.15355,0.402656 l -0.53325,1.284146 q -0.53324,-0.217652 -0.95767,-0.33736 -0.42442,-0.119709 -0.8706,-0.119709 -0.46796,0 -0.71825,0.217652 -0.2503,0.217652 -0.2503,0.565895 0,0.413539 0.37,0.652956 0.37001,0.239418 1.09915,0.587661 0.59854,0.282947 1.01208,0.58766 0.42442,0.304713 0.65295,0.718252 0.22854,0.413539 0.22854,1.022964 z m 4.3204,2.154755 h -3.53685 v -0.935904 l 0.94679,-0.435304 v -5.027761 l -0.94679,-0.435304 v -0.935903 h 3.53685 v 0.935903 l -0.94679,0.435304 v 5.027761 l 0.94679,0.435304 z m 8.21636,0 h -2.08946 l -3.38449,-5.876604 h -0.0435 q 0.0218,0.555013 0.0435,1.110025 0.0326,0.555013 0.0544,1.110025 v 3.656554 h -1.46915 v -7.770176 h 2.07858 l 3.37361,5.822191 h 0.0326 q -0.0218,-0.533248 -0.0435,-1.066495 -0.0218,-0.533248 -0.0326,-1.077378 v -3.678318 h 1.48004 z m 6.43161,0 h -4.47274 v -7.770176 h 4.47274 v 1.349442 h -2.82947 v 1.708568 h 2.63359 v 1.349443 h -2.63359 v 2.002398 h 2.82947 z m 6.20308,-2.154755 q 0,1.033847 -0.7509,1.654155 -0.74002,0.609426 -2.11123,0.609426 -1.22973,0 -2.19828,-0.467952 v -1.534446 q 0.55501,0.239417 1.14267,0.446186 0.59854,0.195887 1.1862,0.195887 0.60943,0 0.85973,-0.228535 0.26118,-0.239417 0.26118,-0.598543 0,-0.29383 -0.20677,-0.500599 -0.19588,-0.20677 -0.53325,-0.380891 -0.33736,-0.185004 -0.77266,-0.391774 -0.27206,-0.130591 -0.58766,-0.304713 -0.3156,-0.185004 -0.60943,-0.446186 -0.28294,-0.272065 -0.46795,-0.652956 -0.185,-0.380891 -0.185,-0.914139 0,-1.044729 0.70737,-1.621507 0.70737,-0.58766 1.92622,-0.58766 0.60942,0 1.15355,0.141474 0.54413,0.141473 1.15356,0.402656 l -0.53325,1.284146 q -0.53325,-0.217652 -0.95767,-0.33736 -0.42442,-0.119709 -0.87061,-0.119709 -0.46795,0 -0.71825,0.217652 -0.2503,0.217652 -0.2503,0.565895 0,0.413539 0.37001,0.652956 0.37001,0.239418 1.09914,0.587661 0.59855,0.282947 1.01209,0.58766 0.42442,0.304713 0.65295,0.718252 0.22854,0.413539 0.22854,1.022964 z m 5.99632,0 q 0,1.033847 -0.7509,1.654155 -0.74002,0.609426 -2.11122,0.609426 -1.22974,0 -2.19829,-0.467952 v -1.534446 q 0.55501,0.239417 1.14267,0.446186 0.59855,0.195887 1.18621,0.195887 0.60942,0 0.85972,-0.228535 0.26118,-0.239417 0.26118,-0.598543 0,-0.29383 -0.20677,-0.500599 -0.19588,-0.20677 -0.53324,-0.380891 -0.33736,-0.185004 -0.77267,-0.391774 -0.27206,-0.130591 -0.58766,-0.304713 -0.31559,-0.185004 -0.60942,-0.446186 -0.28295,-0.272065 -0.46795,-0.652956 -0.18501,-0.380891 -0.18501,-0.914139 0,-1.044729 0.70737,-1.621507 0.70737,-0.58766 1.92622,-0.58766 0.60943,0 1.15356,0.141474 0.54413,0.141473 1.15355,0.402656 l -0.53325,1.284146 q -0.53324,-0.217652 -0.95766,-0.33736 -0.42443,-0.119709 -0.87061,-0.119709 -0.46795,0 -0.71825,0.217652 -0.2503,0.217652 -0.2503,0.565895 0,0.413539 0.37,0.652956 0.37001,0.239418 1.09915,0.587661 0.59854,0.282947 1.01208,0.58766 0.42442,0.304713 0.65295,0.718252 0.22854,0.413539 0.22854,1.022964 z"
         id="text5"
         transform="scale(0.91807554,1.089235)"
         aria-label="FOOD BUSINESS" />
      <path
         style="font-weight:bold;font-size:10.8826px;-inkscape-font-specification:'sans-serif Bold';fill:#0056a3;stroke-width:0"
         d="m 98.9242,46.271128 -1.574861,0.469208 -1.827118,-6.132572 -2.023331,0.602825 -0.391525,-1.314123 5.621524,-1.674858 0.391525,1.314123 -2.023331,0.602824 z m 9.61222,-0.725789 -1.64313,-0.02198 0.0448,-3.351541 -3.0795,-0.0412 -0.0448,3.351541 -1.64312,-0.02198 0.10393,-7.769481 1.64313,0.02198 -0.0408,3.046855 3.0795,0.0412 0.0408,-3.046855 1.64312,0.02198 z m 6.19506,1.859461 -4.25677,-1.373106 2.3854,-7.394966 4.25676,1.373106 -0.41427,1.28428 -2.69284,-0.868632 -0.52452,1.626064 2.50641,0.808496 -0.41427,1.28428 -2.50641,-0.808496 -0.61473,1.905706 2.69285,0.868631 z"
         id="text5-7"
         transform="translate(-0.67145807,-1.0071871)"
         aria-label="THE" />
      <path
         style="font-weight:bold;font-size:10.8826px;line-height:1;-inkscape-font-specification:'sans-serif Bold';fill:#0056a3;stroke-width:0"
         d="m 120.39109,45.169202 -2.19307,-1.013513 q -1.40277,-0.648283 -1.9413,-1.376702 -0.54841,-0.732985 -0.0873,-1.730732 0.27848,-0.602599 0.75671,-0.885108 0.46835,-0.287074 1.03301,-0.134018 l 0.0228,-0.04939 q -0.30923,-0.238818 -0.51354,-0.54903 -0.21875,-0.304899 -0.23146,-0.718385 -0.0127,-0.413487 0.24294,-0.966693 0.44284,-0.958232 1.39533,-1.177418 0.9426,-0.223751 2.13792,0.328659 l 2.63761,1.218954 z m -0.19968,-3.485038 -0.86932,-0.401753 q -0.652,-0.301315 -0.99027,-0.217875 -0.35272,0.08875 -0.5399,0.493778 -0.18718,0.405026 0.027,0.719804 0.21419,0.314777 0.8563,0.611526 l 0.7903,0.36523 z m 0.54785,-1.185442 0.84915,-1.837435 -0.97799,-0.451972 q -0.67175,-0.310445 -1.05717,-0.176864 -0.38999,0.143459 -0.59087,0.578121 -0.18261,0.395147 -0.0156,0.760066 0.15259,0.370232 0.86386,0.698939 z m -5.34614,-5.703942 -1.66086,7.590599 -1.6053,-0.351246 1.3701,-6.261713 -3.08302,-0.674577 0.29077,-1.328887 z m -13.27856,6.424098 0.0224,-5.027712 q 0.004,-0.805304 0.36561,-1.456654 0.3511,-0.640515 1.07105,-1.018203 0.71989,-0.366805 1.79725,-0.362006 1.54532,0.0069 2.34713,0.794011 0.80177,0.79801 0.796,2.093026 l -0.0223,5.005946 -1.64326,-0.0073 0.0212,-4.755649 q 0.004,-0.968542 -0.38571,-1.362057 -0.39008,-0.382632 -1.16273,-0.386074 -0.80531,-0.0036 -1.16632,0.41923 -0.37189,0.422769 -0.37592,1.326016 l -0.0211,4.744766 z m -8.819049,-5.947643 4.331451,-1.115353 1.937621,7.52471 -4.331451,1.115354 -0.336505,-1.306813 2.74009,-0.705576 -0.426059,-1.654593 -2.550392,0.656728 -0.336506,-1.306812 2.550392,-0.656729 -0.499331,-1.939141 -2.740091,0.705577 z m -1.902543,9.249336 q -1.34086,0.676384 -2.247071,0.402185 -0.911027,-0.259581 -1.420765,-1.270083 -0.308784,-0.612132 -0.320831,-1.264251 -0.01205,-0.652119 0.418909,-1.27174 0.421238,-0.614721 1.431741,-1.124459 l 0.631565,-0.318587 -1.244939,-2.467959 1.467172,-0.740101 3.499552,6.937491 z m -0.530034,-1.244041 0.670429,-0.338192 -1.039082,-2.059872 -0.485819,0.245067 q -0.621848,0.313685 -0.85882,0.737944 -0.241788,0.438876 0.03759,0.99271 0.509739,1.010503 1.675704,0.422343 z m -4.886157,4.748437 q -1.223418,1.013767 -2.16962,1.048759 -0.954581,0.04194 -1.704491,-0.863059 -0.340237,-0.410599 -0.437939,-0.852572 -0.09914,-0.426649 -0.0199,-0.85977 0.0778,-0.417798 0.259984,-0.794897 l -3.919173,-1.147889 1.407768,-1.166527 3.327077,1.115589 0.678746,-0.562432 -1.90255,-2.296003 1.265316,-1.048486 4.957738,5.983016 z m -0.768833,-1.115447 0.385461,-0.319406 -1.340117,-1.617258 -0.410599,0.340237 q -0.628468,0.520771 -0.723024,0.952456 -0.102936,0.438628 0.237301,0.849227 0.354124,0.427359 0.793225,0.360303 0.446044,-0.05868 1.057753,-0.565559 z m -11.039562,2.312917 2.207926,-2.76303 0.73114,0.584252 -0.250979,1.011386 3.927752,3.138653 0.93111,-0.467897 0.73114,0.584252 -2.207927,2.763029 -0.73114,-0.584251 0.25098,-1.011387 -3.927752,-3.138653 -0.93111,0.467897 z m -4.924238,8.87732 0.913371,-1.879253 6.764871,-0.475144 0.01903,-0.03915 q -0.508691,-0.223038 -1.017382,-0.446077 -0.513448,-0.21325 -1.022139,-0.436289 l -3.288694,-1.598398 0.642214,-1.321351 6.988474,3.396597 -0.908613,1.869466 -6.711175,0.489142 -0.01427,0.02936 q 0.489115,0.213524 0.978231,0.427048 0.489115,0.213524 0.983261,0.441594 l 3.308269,1.607912 -0.646971,1.331138 z m -1.71982,6.696881 0.332276,-1.609328 6.266788,1.293894 0.426897,-2.067613 1.342884,0.277263 -1.18607,5.744556 -1.342884,-0.277263 0.426898,-2.067614 z"
         id="text5-7-2"
         transform="matrix(-0.86483377,-0.39066005,0.39066005,-0.86483377,167.07492,174.79691)"
         aria-label="BLUEPRINT" />
      <path
         id="path5"
         style="fill:none;stroke-width:3.05557"
         transform="scale(1,-1)"
         d="m 143.43425,-71.729729 a 38.267124,38.267124 0 0 1 -38.26713,38.267124 38.267124,38.267124 0 0 1 -38.267122,-38.267124 38.267124,38.267124 0 0 1 38.267122,-38.267121 38.267124,38.267124 0 0 1 38.26713,38.267121 z" />
      <path
         id="path5-3"
         style="fill:none;stroke-width:1.92784"
         transform="rotate(-114.06824)"
         d="m -82.279793,67.496635 a 24.143684,24.143684 0 0 1 -24.143687,24.143685 24.143684,24.143684 0 0 1 -24.14368,-24.143685 24.143684,24.143684 0 0 1 24.14368,-24.143684 24.143684,24.143684 0 0 1 24.143687,24.143684 z" />
    </g>
  </g>
</svg>
